<svg width="24" height="24" viewBox="0 0 24 24" fill="none" xmlns="http://www.w3.org/2000/svg">
<path fill-rule="evenodd" clip-rule="evenodd" d="M4.5 3.75C4.08579 3.75 3.75 4.08579 3.75 4.5V19.5C3.75 19.9142 4.08579 20.25 4.5 20.25H19.5C19.9142 20.25 20.25 19.9142 20.25 19.5V4.5C20.25 4.08579 19.9142 3.75 19.5 3.75H4.5ZM2.25 4.5C2.25 3.25736 3.25736 2.25 4.5 2.25H19.5C20.7426 2.25 21.75 3.25736 21.75 4.5V19.5C21.75 20.7426 20.7426 21.75 19.5 21.75H4.5C3.25736 21.75 2.25 20.7426 2.25 19.5V4.5Z" fill="#1C1B1F"/>
<path fill-rule="evenodd" clip-rule="evenodd" d="M6.25 12C6.25 11.5858 6.58579 11.25 7 11.25H17C17.4142 11.25 17.75 11.5858 17.75 12C17.75 12.4142 17.4142 12.75 17 12.75H7C6.58579 12.75 6.25 12.4142 6.25 12Z" fill="#1C1B1F"/>
<path fill-rule="evenodd" clip-rule="evenodd" d="M6.25 7.5C6.25 7.08579 6.58579 6.75 7 6.75H17C17.4142 6.75 17.75 7.08579 17.75 7.5C17.75 7.91421 17.4142 8.25 17 8.25H7C6.58579 8.25 6.25 7.91421 6.25 7.5Z" fill="#1C1B1F"/>
<path fill-rule="evenodd" clip-rule="evenodd" d="M6.25 16.5C6.25 16.0858 6.58579 15.75 7 15.75H17C17.4142 15.75 17.75 16.0858 17.75 16.5C17.75 16.9142 17.4142 17.25 17 17.25H7C6.58579 17.25 6.25 16.9142 6.25 16.5Z" fill="#1C1B1F"/>
</svg>
