<svg width="24" height="24" viewBox="0 0 24 24" fill="none" xmlns="http://www.w3.org/2000/svg">
<path fill-rule="evenodd" clip-rule="evenodd" d="M1.25 12C1.25 6.06294 6.06294 1.25 12 1.25C17.9371 1.25 22.75 6.06294 22.75 12C22.75 17.9371 17.9371 22.75 12 22.75C6.06294 22.75 1.25 17.9371 1.25 12ZM12 2.75C6.89136 2.75 2.75 6.89136 2.75 12C2.75 17.1086 6.89136 21.25 12 21.25C17.1086 21.25 21.25 17.1086 21.25 12C21.25 6.89136 17.1086 2.75 12 2.75Z" fill="#FF0000"/>
<path fill-rule="evenodd" clip-rule="evenodd" d="M15.3588 8.64121C15.6517 8.9341 15.6517 9.40898 15.3588 9.70187L9.70193 15.3587C9.40904 15.6516 8.93416 15.6516 8.64127 15.3587C8.34838 15.0658 8.34838 14.591 8.64127 14.2981L14.2981 8.64121C14.591 8.34832 15.0659 8.34832 15.3588 8.64121Z" fill="#FF0000"/>
<path fill-rule="evenodd" clip-rule="evenodd" d="M8.64127 8.64121C8.93416 8.34832 9.40904 8.34832 9.70193 8.64121L15.3588 14.2981C15.6517 14.591 15.6517 15.0658 15.3588 15.3587C15.0659 15.6516 14.591 15.6516 14.2981 15.3587L8.64127 9.70187C8.34838 9.40898 8.34838 8.9341 8.64127 8.64121Z" fill="#FF0000"/>
</svg>
